<?xml version="1.0" standalone="no"?>
<!DOCTYPE svg PUBLIC "-//W3C//DTD SVG 20010904//EN"
 "http://www.w3.org/TR/2001/REC-SVG-20010904/DTD/svg10.dtd">
<svg version="1.0" xmlns="http://www.w3.org/2000/svg"
 width="644.000000pt" height="178.000000pt" viewBox="0 0 644.000000 178.000000"
 preserveAspectRatio="xMidYMid meet">

<g transform="translate(0.000000,178.000000) scale(0.100000,-0.100000)"
fill="#ffffff" stroke="none">
<path d="M1132 1370 c2 -145 7 -230 13 -230 13 0 12 -12 14 230 l1 210 2005 0
2005 0 0 -170 c0 -107 4 -170 10 -170 6 0 10 67 10 180 l0 180 -2030 0 -2030
0 2 -230z"/>
<path d="M1639 1438 c-53 -71 -129 -249 -164 -384 -4 -12 -138 -56 -223 -73
-29 -6 -118 -11 -198 -11 -175 0 -290 21 -457 82 -175 64 -291 55 -356 -28
-52 -66 0 -207 79 -216 36 -4 31 17 -10 44 -72 49 -74 135 -4 179 66 40 122
37 289 -20 207 -69 308 -85 504 -78 125 4 174 10 249 31 51 14 101 30 111 35
15 8 21 4 34 -25 10 -21 31 -41 52 -51 31 -15 42 -15 83 -4 26 6 64 25 84 42
36 28 37 29 48 9 24 -44 101 -28 131 27 16 29 20 29 49 -2 31 -33 77 -41 125
-21 37 16 37 16 31 -7 -14 -52 -18 -95 -8 -101 13 -8 26 5 77 77 42 58 70 82
85 72 4 -3 16 -28 25 -55 9 -27 28 -59 42 -70 43 -33 122 -23 171 23 l22 21
15 -21 c37 -53 123 -50 195 7 31 24 38 26 54 14 43 -31 130 -26 232 13 12 4
15 3 10 -6 -4 -6 0 -23 8 -36 24 -36 74 -34 115 4 23 21 43 30 81 33 56 6 176
61 194 90 16 26 -2 34 -32 14 -46 -30 -125 -64 -166 -71 -37 -6 -38 -6 -32 18
9 38 -23 71 -68 70 -28 -1 -47 -10 -81 -42 -24 -22 -60 -47 -81 -56 -51 -21
-136 -20 -164 3 l-23 18 20 45 c42 96 66 193 67 274 1 79 1 80 -24 80 -43 0
-106 -124 -117 -230 l-5 -50 -48 -1 c-65 -1 -107 -28 -147 -96 -35 -59 -71
-92 -115 -103 -39 -10 -64 9 -84 62 -23 64 -41 83 -77 83 -21 0 -39 -10 -64
-37 -36 -38 -38 -35 -16 24 9 23 -27 26 -50 6 -75 -69 -138 -56 -167 33 l-15
49 -49 3 -48 3 -72 -77 c-73 -79 -113 -104 -165 -104 -27 0 -71 37 -71 61 0 4
23 43 50 86 61 95 132 270 134 332 2 63 -23 66 -65 9z m5 -99 c-27 -77 -98
-227 -115 -244 -16 -16 39 131 87 234 24 52 47 92 49 89 3 -3 -6 -38 -21 -79z
m1151 -170 c-37 -131 -47 -141 -42 -44 3 58 12 99 33 150 l29 70 3 -41 c2 -23
-9 -82 -23 -135z m-910 -106 c-29 -69 -84 -107 -99 -67 -14 36 46 104 91 104
23 0 23 -1 8 -37z m811 -1 c6 -4 16 -22 22 -41 11 -31 10 -35 -22 -67 -54 -54
-127 -58 -146 -8 -15 37 23 99 70 117 22 8 63 8 76 -1z m451 -48 c9 -23 -11
-38 -26 -20 -13 16 -7 36 10 36 5 0 12 -7 16 -16z m-27 -73 c0 -13 -47 -34
-59 -27 -14 9 -14 41 -1 66 10 18 11 18 35 -6 14 -14 25 -28 25 -33z"/>
<path d="M3682 1438 c-62 -90 -144 -284 -157 -368 -11 -73 27 -142 85 -155 41
-9 105 11 144 46 l34 30 27 -27 c34 -33 68 -27 112 22 l31 35 25 -25 c33 -33
84 -42 129 -23 l35 15 -14 -50 c-15 -49 -12 -78 6 -78 5 0 30 29 56 65 25 36
58 73 71 82 30 19 37 12 55 -51 29 -106 140 -117 229 -23 34 36 34 36 55 18
62 -57 197 -40 294 37 54 44 124 60 301 68 101 5 157 2 289 -16 275 -38 503
-19 619 52 71 43 98 120 68 192 -22 54 -60 76 -127 76 -52 0 -59 -2 -59 -19 0
-17 7 -20 48 -19 78 2 112 -29 112 -104 0 -48 -60 -101 -145 -128 -103 -33
-313 -39 -477 -14 -161 25 -398 25 -521 0 -75 -14 -94 -22 -121 -50 -45 -44
-100 -69 -168 -74 -50 -4 -59 -2 -82 21 -34 35 -33 44 9 51 46 9 107 62 103
90 -3 18 -10 21 -44 20 -55 -1 -98 -33 -130 -97 -48 -97 -120 -149 -175 -128
-17 6 -30 25 -43 62 -25 70 -32 79 -69 79 -22 0 -42 -11 -69 -37 l-39 -38 12
33 c17 50 -1 61 -44 28 -51 -39 -101 -45 -132 -16 -14 13 -25 33 -25 45 0 38
-28 65 -67 65 -45 0 -80 -22 -118 -73 -69 -92 -183 -137 -219 -85 -23 32 -20
54 14 103 72 104 154 308 148 368 -5 48 -31 46 -66 -5z m2 -109 c-29 -82 -103
-234 -110 -227 -7 8 34 119 83 221 26 55 49 95 51 89 1 -5 -9 -42 -24 -83z
m1015 -235 c-12 -15 -61 -44 -74 -44 -13 0 8 22 39 41 38 23 53 25 35 3z
m-759 -4 c0 -15 -29 -71 -48 -92 -19 -23 -51 -23 -59 -2 -8 22 23 79 50 92 29
14 57 15 57 2z"/>
<path d="M5170 605 l0 -305 -2007 0 -2008 0 0 252 c0 194 -3 252 -13 256 -10
3 -12 -51 -10 -262 l3 -266 2027 -3 2028 -2 0 318 c0 205 -4 317 -10 317 -6 0
-10 -108 -10 -305z"/>
<path d="M4230 730 c0 -16 5 -21 23 -18 12 2 22 10 22 18 0 8 -10 16 -22 18
-18 3 -23 -2 -23 -18z"/>
<path d="M4090 688 c0 -7 -12 -25 -27 -40 -21 -22 -23 -28 -10 -28 15 0 17
-13 17 -100 0 -88 2 -100 19 -110 26 -13 34 -13 57 6 10 8 13 13 6 9 -30 -15
-42 15 -42 106 l0 89 30 0 c17 0 30 5 30 10 0 6 -13 10 -30 10 -27 0 -30 3
-30 30 0 17 -4 30 -10 30 -5 0 -10 -5 -10 -12z"/>
<path d="M3116 631 c-40 -27 -55 -57 -56 -113 0 -38 6 -54 28 -79 39 -43 103
-51 151 -17 19 12 36 29 39 36 2 7 -13 1 -33 -13 -47 -31 -76 -32 -112 -1 -25
22 -28 31 -28 86 0 55 3 64 28 86 36 30 58 30 95 -1 26 -22 31 -23 42 -10 34
41 -98 63 -154 26z"/>
<path d="M3343 643 c-26 -5 -30 -18 -8 -27 12 -4 15 -24 15 -90 0 -76 -2 -86
-22 -100 -21 -15 -19 -16 42 -15 49 0 60 2 43 9 -21 8 -23 16 -23 74 0 36 5
77 10 91 8 22 15 26 43 23 27 -2 33 1 35 20 5 31 -34 30 -69 -4 l-26 -25 4 25
c5 27 3 28 -44 19z"/>
<path d="M3573 640 c-54 -22 -80 -119 -48 -180 38 -74 150 -78 199 -8 26 37
18 45 -10 11 -21 -27 -32 -33 -64 -33 -21 0 -46 3 -55 6 -22 9 -45 57 -45 94
l0 30 95 0 c98 0 110 6 82 40 -35 46 -99 62 -154 40z m105 -27 c25 -34 15 -43
-53 -43 -68 0 -79 9 -52 42 25 32 80 32 105 1z"/>
<path d="M3823 634 c-34 -17 -40 -28 -23 -39 6 -4 18 3 28 14 22 26 62 35 85
19 9 -7 20 -30 23 -50 l6 -36 -48 -8 c-58 -8 -99 -27 -108 -49 -26 -68 65
-114 127 -65 l26 20 6 -20 c5 -16 12 -19 28 -14 26 8 49 27 27 22 -12 -2 -16
14 -20 90 -4 83 -8 96 -29 113 -28 23 -84 24 -128 3z m117 -133 c0 -15 -9 -40
-21 -55 -28 -36 -84 -34 -89 4 -6 40 1 50 48 64 63 20 62 20 62 -13z"/>
<path d="M4231 635 c-27 -9 -31 -13 -18 -18 26 -10 25 -181 0 -196 -14 -8 -4
-10 41 -11 54 0 58 1 40 14 -16 12 -20 30 -24 119 l-5 104 -34 -12z"/>
<path d="M4330 640 c0 -5 4 -10 10 -10 5 0 34 -52 64 -115 30 -63 57 -115 60
-115 3 0 30 52 60 115 30 63 59 115 65 115 6 0 11 4 11 9 0 6 -18 9 -40 8 -22
-1 -40 -5 -40 -9 0 -4 5 -8 10 -8 18 0 10 -40 -21 -108 l-31 -67 -40 83 c-38
80 -39 84 -21 97 16 13 12 14 -34 15 -29 0 -53 -4 -53 -10z"/>
<path d="M4684 631 c-68 -41 -72 -142 -8 -200 33 -30 41 -33 81 -28 46 5 103
46 103 75 0 7 -12 0 -26 -17 -21 -26 -33 -31 -68 -31 -53 0 -85 31 -93 89 l-6
41 97 0 c99 0 106 3 86 41 -26 47 -112 63 -166 30z m106 -11 c38 -38 27 -50
-45 -50 -73 0 -84 14 -39 49 33 26 58 27 84 1z"/>
</g>
</svg>
